<?xml version="1.0" encoding="UTF-8"?>
<svg xmlns="http://www.w3.org/2000/svg" id="Layer_2" viewBox="0 0 140 68.83137">
  <defs>
    <style>.cls-1{fill:#0055b8;}</style>
  </defs>
  <g id="assets">
    <path id="cms-logo" class="cls-1" d="M31.00528,59.37485c-.17305,0-.35852-.03723-.55623-.06171.04945,1.06314.04945,3.00395.04945,4.5614h-.0248c-.3461-.80354-.98885-1.23619-1.9036-1.23619-1.28564,0-2.65784,1.01351-2.65784,3.11495,0,2.12627,1.26088,3.04117,2.50945,3.04117,1.21153,0,1.84187-.81596,2.0892-1.33511h.02469l-.03711,1.21136c.17305-.02448.32148-.06171.4697-.06171.14843,0,.29665.03723.48212.06171-.01242-.98868-.03707-1.84187-.03707-2.96672,0-2.11386.03707-5.35255.14839-6.39087-.21026.02448-.38331.06171-.55636.06171ZM28.70612,68.33703c-.80356,0-1.70603-.53155-1.70603-2.50926,0-1.49576.55636-2.67024,1.74306-2.67024,1.17432,0,1.80483.87767,1.80483,2.43515,0,1.34753-.55636,2.74435-1.84187,2.74435ZM51.90205,48.48292c0-2.47271-1.2365-3.85746-3.31363-3.85746-1.92891,0-3.51152,1.43405-3.51152,3.9564v7.36917h-1.90412v-7.51741c0-2.39858-1.26116-3.80816-3.2888-3.80816-2.02785,0-3.56104,1.68156-3.56104,4.03051v7.29506h-1.90405v-12.78478h1.90405v2.15143c.84081-1.261,1.9784-2.42341,4.12982-2.42341,2.07713,0,3.41244,1.11276,4.10478,2.54715.91509-1.40957,2.27519-2.54715,4.50072-2.54715,2.94277,0,4.74791,1.97837,4.74791,5.14362v7.91313h-1.90412v-7.46811ZM61.15508,12.77505c-2.55751-6.05349-5.51686-8.27115-6.65012-8.45896-1.13-.1937,4.51799.02918,8.92531,4.30771,3.94213,3.82391,6.20241,3.30278,6.20241,3.30278,0,0,2.4395-.14893,5.26554-2.36405,4.1078-3.21476,8.79904-2.96034,9.36179-2.92113.85787.06539-1.14699.31023-3.86084,2.00451-1.45016.90521-2.55921,3.12437-3.05825,4.81601-1.82442,6.20574,10.46633,23.9262,6.70648,19.85794-8.61642-9.31013-20.84631-12.85938-23.9373,1.10489-.03541.16098,3.26619-16.38667,1.045-21.6497ZM37.59537,60.61104c0,.3461-.28441.63051-.63051.63051s-.63051-.28441-.63051-.63051.28441-.63051.63051-.63051.63051.28441.63051.63051ZM43.27006,65.70402c0,1.69365.76649,2.5713,2.13865,2.5713.65517,0,1.42152-.38331,1.85432-.87765l.06169.03688c-.03707.19788-.06169.40814-.07411.6057-.49453.39573-1.29806.75425-2.06441.75425-1.43407,0-3.00395-.86527-3.00395-3.07806,0-2.13867,1.56988-3.07807,3.15217-3.07807.9025,0,1.68123.25959,1.9903.54398-.11118.24718-.21012.51915-.27199.81563h-.09877c-.23492-.42021-.80356-.9642-1.58229-.9642-1.49576,0-2.10162,1.14966-2.10162,2.67024ZM55.83062,67.34802c0-1.03831.04945-1.95288.04945-2.88019,0-1.10002-.81577-1.82947-2.00247-1.82947-.65534,0-1.2486.16065-1.9903.71703v.64258h.13598c.28423-.53124.90233-.84044,1.55746-.84044.98906,0,1.35979.72943,1.35979,1.55748,0,.48225-.06169.5812-1.85411.86526-1.07555.17305-1.7431.70462-1.7431,1.69363,0,.93973.81598,1.5206,1.64419,1.5206.8406,0,1.34734-.30922,1.94081-.90248.04928.42021.32127.76631.85284.76631.32145,0,.61806-.09859.79115-.17305v-.27165c-.08653.0493-.18547.0493-.25958.0493-.48212,0-.48212-.50676-.48212-.9149ZM54.89108,67.41006c-.28423.45711-.82822.86526-1.45855.86526-.54398,0-1.07552-.39573-1.07552-1.17448,0-1.34753,1.73068-1.261,2.58352-1.54504l-.04945,1.85427ZM37.42214,65.07352v1.28581c0,.7415.02483,1.60677.09894,2.31139-.18547-.03688-.37076-.06171-.55623-.06171s-.37093.02483-.55619.06171c.07408-.70462.09873-1.56989.09873-2.31139v-1.28581c0-.74152-.02466-1.60679-.09873-2.31139.18526.03688.37072.06171.55619.06171s.37076-.02483.55623-.06171c-.07411.7046-.09894,1.56988-.09894,2.31139ZM65.21564,4.5626c0-2.51883,1.6212-4.5626,3.62121-4.5626,2.0008,0,3.61916,2.04377,3.61916,4.5626,0,2.5232-1.61836,4.56961-3.61916,4.56961-2.00001,0-3.62121-2.04641-3.62121-4.56961ZM94.27154,9.1126c0-2.71149,1.68962-4.90635,3.77498-4.90635,2.08504,0,3.77296,2.19485,3.77296,4.90635,0,2.71068-1.68792,4.90669-3.77296,4.90669-2.08535,0-3.77498-2.19601-3.77498-4.90669ZM30.98312,49.57121v-.04964c0-3.6103-2.81896-6.6273-6.65196-6.6273-3.85762,0-6.67676,3.06632-6.67676,6.67695v.0493c0,3.6103,2.79431,6.6273,6.6273,6.6273,3.85762,0,6.70141-3.06632,6.70141-6.6766ZM29.02962,49.62051c0,2.6954-1.92895,4.92095-4.69846,4.92095-2.69537,0-4.72322-2.22554-4.72322-4.97024v-.04964c0-2.6954,1.90408-4.94574,4.67377-4.94574,2.6954,0,4.74791,2.25034,4.74791,4.99539v.0493ZM32.53531,17.01149c-3.6537,0-6.83104,2.22974-6.83104,2.22974,2.16789-3.35844,7.728-7.05291,11.42824-5.01872,3.8769,2.13349,6.68331.08989,6.68331.08989,0,0,2.71229-2.04058,3.88425-3.21422,4.59664-4.59829,9.73879-4.44485,8.56045-4.23946-1.1842.20307-3.00277,1.67971-5.57828,7.86266-2.34476,5.63058,1.86351,20.74017,1.80799,20.57369-3.58094-10.88458-15.5214-10.89377-24.50272-.88775-3.92302,4.37358,6.34241-10.14959,6.34241-15.74997,0-.21987-.26225-1.64586-1.7946-1.64586ZM11.64415,59.98053c.37076,3.1646.61796,5.85931,1.01351,8.6902-.19771-.03688-.38317-.06171-.58088-.06171-.19788,0-.38331.02483-.58102.06171-.17305-2.2128-.3461-4.2646-.60568-6.37848h-.02483c-1.12483,2.06423-2.26211,4.09157-3.23869,6.31676h-.11136c-.9642-2.05215-2.10144-4.17807-3.17682-6.31676h-.02483c-.23475,2.03975-.58085,4.98163-.59326,6.37848-.14839-.03688-.28441-.06171-.43263-.06171-.14841,0-.28439.02483-.4328.06171.4328-2.73195.92712-6.06959,1.19915-8.6902h.21009c1.12501,2.32414,2.28691,4.49971,3.54793,6.81145.49432-.96421,2.45996-4.52454,3.67132-6.81145h.16081ZM19.49544,62.63836c-1.81721,0-2.83089,1.2486-2.83089,3.25112,0,1.644,1.22377,2.905,3.00395,2.905.76631,0,1.56988-.35852,2.06441-.75425l.07408-.6057-.06169-.03688c-.4328.49434-1.19912.87765-1.85428.87765-1.3722,0-2.13869-1.00142-2.13869-2.28689,0-.11136,0-.22269.01242-.3461.54398-.01243,1.07555-.03725,1.61936-.03725.87767,0,1.75534.02481,2.64543.03725.01242-.16065.0248-.32164.0248-.48227,0-1.37203-.82836-2.52169-2.55887-2.52169ZM19.3965,65.20968c-.51919,0-1.10021-.02481-1.60695-.03723.06173-.89009.51915-2.13867,1.73051-2.13867,1.28568,0,1.5206,1.261,1.5206,2.13867-.51933.01242-1.10021.03723-1.64416.03723ZM14.31778,51.94498l1.28599,1.26102c-1.80535,1.83013-3.78354,3.04182-6.92412,3.04182-4.99507,0-8.67964-3.9319-8.67964-8.90249v-.04928c0-4.89611,3.65977-8.9518,8.75392-8.9518,3.14044,0,5.01987,1.11278,6.7509,2.74504l-1.33548,1.43405c-1.45887-1.38476-3.09099-2.37378-5.44025-2.37378-3.83282,0-6.70143,3.11563-6.70143,7.09718v.04931c0,4.00603,2.89327,7.14647,6.70143,7.14647,2.37396,0,3.9319-.91492,5.58868-2.49754ZM37.3875,7.73675c0-2.70834,1.68962-4.90534,3.77498-4.90534,2.08636,0,3.77362,2.197,3.77362,4.90534,0,2.71248-1.68727,4.90902-3.77362,4.90902-2.08535,0-3.77498-2.19654-3.77498-4.90902ZM62.16096,62.87312v2.23761c0,1.13726.02483,2.73195.09898,3.56-.1855-.03688-.37079-.06171-.55626-.06171s-.3709.02483-.55619.06171c.07411-.82804.09877-2.42273.09877-3.56v-2.23761c0-1.13723-.02466-2.73195-.09877-3.55998.18529.0369.37072.06171.55619.06171s.37076-.02481.55626-.06171c-.07414.82803-.09898,2.42275-.09898,3.55998ZM111.96007,38.27013h2.17594v2.10179h-2.17594v-2.10179ZM112.08349,43.16624h1.90426v12.78478h-1.90426v-12.78478ZM104.8801,20.03169c0,5.60125,7.83332,17.64955,5.7523,15.12116-8.53721-10.38584-20.30413-11.24208-23.52441,0-.04897.16868,3.76287-13.42752,1.4186-19.05761-2.57499-6.18209-4.3964-7.65994-5.5796-7.86266-1.17616-.2051,3.96582-.35867,8.56176,4.23928,1.17349,1.17364,3.88495,3.21253,3.88495,3.21253,0,0,2.8044,2.04681,6.68199-.08498,3.69917-2.03675,9.26101,1.6569,11.42755,5.01668,0,0-3.17603-2.23056-6.82889-2.23056-1.53263,0-1.79425,1.42582-1.79425,1.64615ZM109.74661,60.61104c0,.3461-.28406.63051-.63047.63051-.3461,0-.6302-.28441-.6302-.63051s.2841-.63051.6302-.63051c.34641,0,.63047.28441.63047.63051ZM130.38047,59.98188c-1.06348,0-1.85459-.22269-2.7202-.64292l.64289-1.50851c.61841.32129,1.18687.46986,2.00316.46986,1.13728,0,1.85463-.59361,2.62129-2.3986l-5.81136-12.73547h2.10183l4.64894,10.65818,4.10495-10.65818h2.02803l-5.36632,13.20499c-1.08793,2.6461-2.32447,3.61065-4.25321,3.61065ZM136.45072,66.84126c0,.93938-.85284,1.95322-2.22518,1.95322-.75393,0-1.2486-.21028-1.59471-.40781.09894-.21028.23509-.65532.23509-.90248h.14826c.17302.33369.70462.85284,1.39682.85284.61809,0,1.19894-.38333,1.19894-1.11242,0-1.53301-2.91711-.63051-2.91711-2.71956,0-1.07554.74155-1.8667,2.05185-1.8667.60564,0,.98903.22237,1.37234.34612-.13615.23475-.27199.6922-.29679.87767h-.14826c-.12374-.39542-.53157-.76633-1.08793-.76633-.48194,0-1.05076.30889-1.05076,1.03831,0,1.60712,2.91742.61811,2.91742,2.70714ZM126.23897,62.63836c-1.81707,0-2.83089,1.2486-2.83089,3.25112,0,1.644,1.22377,2.905,3.00391,2.905.76631,0,1.56991-.35852,2.06423-.75425l.07446-.6057-.06204-.03688c-.43263.49434-1.19894.87765-1.85432.87765-1.37199,0-2.13827-1.00142-2.13827-2.28689,0-.11136,0-.22269.01238-.3461.54364-.01243,1.07517-.03725,1.61919-.03725.87767,0,1.75531.02481,2.64539.03725.01242-.16065.02483-.32164.02483-.48227,0-1.37203-.82836-2.52169-2.55887-2.52169ZM126.13999,65.20968c-.51912,0-1.1-.02481-1.60712-.03723.06208-.89009.51919-2.13867,1.73086-2.13867,1.2855,0,1.52028,1.261,1.52028,2.13867-.51915.01242-1.10004.03723-1.64402.03723ZM124.99068,55.62941c-.66741.34643-1.38476.54431-2.29964.54431-2.05248,0-3.61032-1.01419-3.61032-3.61065v-7.71527h-1.78048v-1.68156h1.78048v-3.85746h1.90429v3.85746h4.05533v1.68156h-4.05533v7.46811c0,1.55781.86526,2.1266,2.15104,2.1266.64327,0,1.18722-.12342,1.85463-.44504v1.63193ZM115.42147,65.70402c0,1.69365.76631,2.5713,2.13834,2.5713.65534,0,1.42162-.38331,1.85428-.87765l.06204.03688c-.03721.19788-.06204.40814-.07446.6057-.49432.39573-1.29788.75425-2.06423.75425-1.43404,0-3.00391-.86527-3.00391-3.07806,0-2.13867,1.56988-3.07807,3.15217-3.07807.9025,0,1.6812.25959,1.99043.54398-.11136.24718-.21026.51915-.27199.81563h-.09891c-.23513-.42021-.8036-.9642-1.58229-.9642-1.4958,0-2.10148,1.14966-2.10148,2.67024ZM78.44267,66.05013c0,1.50816-1.12483,2.78123-3.02874,2.78123-1.02593,0-1.60681-.35817-2.0394-.7046.14822-.383.18547-.63018.23475-1.10004h.14826c.27196.58087.89009,1.28549,1.95322,1.28549,1.10035,0,1.76776-.80321,1.76776-1.79224,0-2.27449-3.89403-1.29788-3.89403-4.20289,0-1.37236,1.03831-2.33655,2.68264-2.33655.77873,0,1.33513.18547,1.82945.5812-.14822.28408-.23478.56847-.33369,1.03832h-.14857c-.17305-.45746-.54364-1.16206-1.47097-1.16206-.92699,0-1.59471.63049-1.59471,1.53298,0,2.31139,3.89403,1.34721,3.89403,4.07917ZM109.57356,65.07352v1.28581c0,.7415.02483,1.60677.09894,2.31139-.18547-.03688-.37093-.06171-.55636-.06171-.18512,0-.37059.02483-.55605.06171.07408-.70462.09891-1.56989.09891-2.31139v-1.28581c0-.74152-.02483-1.60679-.09891-2.31139.18547.03688.37093.06171.55605.06171.18543,0,.3709-.02483.55636-.06171-.07411.7046-.09894,1.56988-.09894,2.31139ZM85.24258,62.63836c-1.81693,0-2.83076,1.2486-2.83076,3.25112,0,1.644,1.22377,2.905,3.00381,2.905.76628,0,1.56988-.35852,2.0642-.75425l.07446-.6057-.06204-.03688c-.43263.49434-1.19894.87765-1.85428.87765-1.37182,0-2.13817-1.00142-2.13817-2.28689,0-.11136,0-.22269.01242-.3461.54364-.01243,1.07503-.03725,1.61902-.03725.87764,0,1.75534.02481,2.64539.03725.01242-.16065.02483-.32164.02483-.48227,0-1.37203-.82836-2.52169-2.55887-2.52169ZM85.1436,65.20968c-.51915,0-1.09983-.02481-1.60691-.03723.06201-.89009.51915-2.13867,1.73068-2.13867,1.28547,0,1.52025,1.261,1.52025,2.13867-.51915.01242-1.10004.03723-1.64402.03723ZM72.10276,44.62546c-1.9287,0-3.51134,1.43405-3.51134,3.9564v7.36917h-1.90391v-7.51741c0-2.39858-1.26133-3.80816-3.28901-3.80816-2.02782,0-3.561,1.68156-3.561,4.03051v7.29506h-1.90408v-12.78478h1.90408v2.15143c.84077-1.261,1.9784-2.42341,4.12978-2.42341,2.07731,0,3.41244,1.11276,4.10499,2.54715.91488-1.40957,2.27484-2.54715,4.50037-2.54715,2.94291,0,4.74788,1.97837,4.74788,5.14362v7.91313h-1.90391v-7.46811c0-2.47271-1.23654-3.85746-3.31384-3.85746ZM90.52334,55.95103v-2.22554c-.8656,1.38476-2.17625,2.49752-4.37694,2.49752-3.09099,0-4.89631-2.07729-4.89631-5.11879v-7.93796h1.90426v7.46809c0,2.37411,1.28581,3.85781,3.53603,3.85781,2.17587,0,3.83296-1.60743,3.83296-4.00603v-7.31987h1.87911v12.78478h-1.87911ZM94.68832,62.63836c.14826,0,.23478.01243.39542.07413-.08649.19788-.08649.66739-.08649,1.00142l-.08656.06171c-.08649-.09894-.35852-.19786-.60564-.19786-.79118,0-1.26102.75425-1.26102,1.71844,0,2.15076,0,2.80606.04963,3.37453-.16067-.03688-.33372-.06171-.4947-.06171-.17305,0-.33369.02483-.51915.06171.04966-.60568.04966-1.56989.04966-2.9543v-.39575c0-.64258,0-1.49576-.04966-2.55856.18547.03688.3461.06171.51915.06171.16098,0,.33403-.02483.4947-.06171-.06204.59326-.06204.88974-.06204,1.19894l.02483.01243c.46984-.89009,1.0631-1.33515,1.63188-1.33515ZM107.85644,48.01308v7.93795h-1.90391v-7.46811c0-2.37377-1.28613-3.85746-3.53617-3.85746-2.20108,0-3.83296,1.6071-3.83296,4.00603v7.31954h-1.90426v-12.78478h1.90426v2.22554c.84077-1.38476,2.17587-2.49752,4.37694-2.49752,3.09082,0,4.8961,2.07729,4.8961,5.11881ZM103.77461,62.82384c.13584,0,.25958-.02483.38335-.06171-.87771,1.97769-1.78017,3.94331-2.48479,5.9086-.12377-.03688-.25958-.06171-.38331-.06171-.13587,0-.25961.02483-.39542.06171-.75428-1.96529-1.4958-3.93091-2.39827-5.9086.21026.03688.4078.06171.61809.06171.18547,0,.35852-.02483.54398-.06171.50674,1.60676,1.12483,3.20148,1.84187,4.82098.66741-1.34753,1.3103-3.21422,1.89118-4.82098.12374.03688.25958.06171.38331.06171Z"></path>
  </g>
</svg>
